<svg width="444.819" height="444.819" xmlns="http://www.w3.org/2000/svg" viewBox="0 0 444.819 444.819">
 <g>
  <g transform="rotate(90 221.40899658203125,222.4095153808594) " id="svg_1" fill="currentColor">
   <path id="svg_2" d="m433.252,208.708l-185.865,-185.865c-7.042,-7.043 -15.693,-10.564 -25.977,-10.564c-10.467,0 -19.036,3.521 -25.697,10.564l-185.865,185.865c-7.233,7.232 -10.848,15.896 -10.848,25.984c0,9.897 3.619,18.459 10.848,25.693l21.411,21.409c6.854,7.231 15.42,10.855 25.697,10.855c10.278,0 18.842,-3.624 25.697,-10.855l83.939,-83.651l0,200.998c0,9.89 3.567,17.936 10.706,24.126c7.139,6.184 15.752,9.273 25.837,9.273l36.545,0c10.089,0 18.698,-3.09 25.837,-9.273c7.139,-6.188 10.712,-14.236 10.712,-24.126l0,-200.997l83.938,83.651c6.848,7.231 15.413,10.855 25.7,10.855c10.082,0 18.747,-3.624 25.975,-10.855l21.409,-21.409c7.043,-7.426 10.567,-15.988 10.567,-25.693c0.001,-9.898 -3.523,-18.559 -10.566,-25.985z"/>
  </g>
 </g>
</svg>