<svg id="Layer_1" enable-background="new 0 0 512 512" height="512" viewBox="0 0 512 512" width="512"
		 xmlns="http://www.w3.org/2000/svg">
 <g fill="currentColor">
	<path id="XMLID_812_"
				d="m126.618 105.735c-2.93-2.929-7.678-2.929-10.607 0l-53.26 53.26c-2.929 2.929-2.929 7.677 0 10.606l11.015 11.015c1.427 1.427 3.343 2.197 5.305 2.197.697 0 1.4-.097 2.089-.297l41.282-11.978c2.468-.716 4.397-2.646 5.113-5.113l11.978-41.283c.762-2.626.034-5.459-1.899-7.393zm-12.319 51.547-33.062 9.592-2.576-2.577 42.653-42.653 2.576 2.577z"/>
	<path id="XMLID_815_"
				d="m477.631 394.698c-4.143 0-7.5 3.358-7.5 7.5v6.134c0 15.486-12.599 28.085-28.085 28.085h-166.349c-4.143 0-7.5 3.358-7.5 7.5s3.357 7.5 7.5 7.5h166.349c23.757 0 43.085-19.328 43.085-43.085v-6.134c0-4.142-3.358-7.5-7.5-7.5z"/>
	<path id="XMLID_816_"
				d="m490.034 308.222h-31.787l-41.1-41.1c-5.896-5.897-13.737-9.145-22.078-9.145h-54.662l-43.241-43.241c-5.896-5.898-13.737-9.146-22.078-9.146h-43.734c-8.341 0-16.182 3.248-22.078 9.146l-.653.653-45.353-45.353 13.369-46.08c2.57-8.858.115-18.412-6.406-24.933l-31.033-31.034c-4.777-4.777-11.129-7.408-17.885-7.408s-13.107 2.631-17.885 7.408l-78.422 78.422c-4.776 4.777-7.407 11.128-7.407 17.884s2.631 13.107 7.407 17.884l31.033 31.033c6.521 6.521 16.072 8.977 24.932 6.407l46.081-13.37 25.106 25.107h-10.302c-8.341 0-16.182 3.248-22.078 9.145l-67.718 67.717h-30.096c-12.112.004-21.966 9.858-21.966 21.97s9.854 21.966 21.966 21.966h4.903v56.178c0 23.757 19.328 43.085 43.085 43.085h170.349c4.143 0 7.5-3.358 7.5-7.5s-3.357-7.5-7.5-7.5h-170.349c-15.486 0-28.085-12.599-28.085-28.085v-56.178h428.262v14.649c0 4.142 3.357 7.5 7.5 7.5s7.5-3.358 7.5-7.5v-14.649h4.903c12.112 0 21.966-9.854 21.966-21.966s-9.854-21.966-21.966-21.966zm-355.509-115.711c-1.935-1.934-4.768-2.662-7.394-1.9l-50.339 14.605c-3.603 1.047-7.491.047-10.145-2.607l-31.033-31.033c-1.944-1.944-3.015-4.529-3.015-7.278s1.07-5.334 3.015-7.278l78.422-78.422c4.012-4.014 10.543-4.013 14.555 0l31.034 31.034c2.654 2.654 3.653 6.541 2.606 10.145l-14.604 50.338c-.762 2.626-.034 5.459 1.899 7.393l48.488 48.488-5.363 5.363h-19.279zm355.509 144.643h-468.068c-3.841 0-6.966-3.125-6.966-6.966s3.125-6.966 6.966-6.966h97.837c4.143 0 7.5-3.358 7.5-7.5s-3.357-7.5-7.5-7.5h-46.528l57.112-57.111c3.063-3.063 7.137-4.751 11.471-4.751h53.901c1.989 0 3.896-.79 5.304-2.197l18.82-18.821c3.063-3.064 7.137-4.751 11.471-4.751h43.734c4.334 0 8.407 1.688 11.471 4.752l45.438 45.438c1.407 1.407 3.314 2.197 5.304 2.197h57.769c4.334 0 8.407 1.688 11.471 4.751l30.493 30.493h-281.837c-4.143 0-7.5 3.358-7.5 7.5s3.357 7.5 7.5 7.5h334.837c3.841 0 6.966 3.125 6.966 6.966s-3.125 6.966-6.966 6.966z"/>
	<path id="XMLID_820_"
				d="m237.029 261.903c4.143 0 7.5-3.358 7.5-7.5v-.115c0-4.142-3.357-7.5-7.5-7.5s-7.5 3.358-7.5 7.5v.115c0 4.142 3.358 7.5 7.5 7.5z"/>
	<path id="XMLID_821_"
				d="m266 275.058c4.143 0 7.5-3.358 7.5-7.5v-.115c0-4.142-3.357-7.5-7.5-7.5s-7.5 3.358-7.5 7.5v.115c0 4.142 3.357 7.5 7.5 7.5z"/>
	<path id="XMLID_822_"
				d="m162 292.115c4.143 0 7.5-3.358 7.5-7.5v-.115c0-4.142-3.357-7.5-7.5-7.5s-7.5 3.358-7.5 7.5v.115c0 4.142 3.357 7.5 7.5 7.5z"/>
 </g>
</svg>