<svg width="563.041" height="563.041" xmlns="http://www.w3.org/2000/svg" viewBox="0 0 563.041 563.041">
 <g>
  <g stroke="null" fill="currentColor">
   <path stroke="null" id="svg_6" d="m279.44912,217.32498l-25.98196,71.49525c-0.55719,1.52285 -0.49965,2.65438 -0.24226,3.04571c0.29676,0.38526 1.31727,0.83423 2.94644,0.83423l47.1824,0c1.85629,0 2.71024,-0.50357 2.89193,-0.78266c0.18472,-0.29729 0.39064,-1.26197 -0.27859,-3.0093l-26.51795,-71.58323z"/>
   <path stroke="null" id="svg_7" d="m281.69301,0c-154.78345,0 -280.69301,126.13597 -280.69301,281.191c0,155.06109 125.90956,281.19706 280.69301,281.19706c154.78648,0 280.69301,-126.13597 280.69301,-281.19706c0,-155.05502 -125.90653,-281.191 -280.69301,-281.191zm151.24349,418.39648c-3.77919,5.60604 -10.35645,8.81556 -18.0511,8.81556l-31.22681,0c-13.5088,0 -27.37191,-9.54362 -32.20492,-22.16632l-13.73289,-35.86897c-2.05918,-5.36942 -9.17242,-10.26865 -14.94114,-10.26865l-85.26808,0c-5.68999,0 -12.62154,4.88102 -14.56867,10.25044l-12.9183,35.60808c-4.57864,12.58326 -18.62343,22.44237 -32.00505,22.44237l-29.55827,0c-7.67346,0 -14.26888,-3.21255 -18.06927,-8.79736c-3.81856,-5.58784 -4.41209,-12.88662 -1.6322,-20.04889l104.28518,-268.23461c4.89357,-12.60753 18.77484,-22.11171 32.28365,-22.11171l29.39172,0c13.4543,0 27.39008,9.44958 32.39266,21.96307l107.22859,268.38325c2.91313,7.1289 2.37411,14.43981 -1.40509,20.03372z"/>
  </g>
 </g>
</svg>