<svg width="563.041" height="563.041" xmlns="http://www.w3.org/2000/svg" viewBox="0 0 563.041 563.041">
 <g>=
  <g stroke="null" id="svg_2" fill="currentColor">
   <g stroke="null" id="svg_10">
    <path stroke="null" id="svg_3" d="m334.66163,314.97832c-5.4659,-1.92896 -19.45922,-4.188 -55.22833,-4.188l-34.22775,0c-5.26301,0 -9.54489,4.26371 -9.54489,9.54489l0,49.35059c0,5.26301 4.26371,9.54489 9.54489,9.54489l41.99206,0c28.5953,0 39.25457,-0.96297 43.16398,-1.78058c7.9672,-1.46565 14.06599,-4.76033 18.85055,-10.10208c4.57864,-5.16914 6.81951,-12.19456 6.81951,-21.42149c0,-7.93086 -1.78058,-14.32339 -5.42956,-19.6076c-3.63384,-5.16611 -8.87868,-8.89383 -15.94045,-11.34061z"/>
    <path stroke="null" id="svg_4" d="m245.18738,238.12258l24.28011,0c25.10681,0 40.80501,-0.35127 46.62218,-1.03867c9.02404,-1.07501 16.10397,-4.1123 21.01874,-9.00587c4.66646,-4.66949 6.9255,-10.82279 6.9255,-18.84752c0,-3.79736 -0.47846,-7.26465 -1.44445,-10.28377c-1.44445,-4.50293 -8.1398,-11.84329 -12.56098,-13.71472c-3.08271,-1.31727 -6.74986,-2.2439 -10.91666,-2.74355c-6.00189,-0.6874 -24.52237,-1.03867 -54.9679,-1.03867l-18.93837,0c-5.26301,0 -9.54489,4.26371 -9.54489,9.54489l0,37.583c0,5.28421 4.26371,9.54489 9.52672,9.54489z"/>
    <path stroke="null" id="svg_5" d="m280.69303,0c-154.78043,0 -280.69302,125.90956 -280.69302,280.69302c0,154.78649 125.91259,280.69302 280.69302,280.69302c154.78649,0 280.69302,-125.9247 280.69302,-280.69302c0,-154.78346 -125.90654,-280.69302 -280.69302,-280.69302zm150.46827,396.26128c-7.54628,15.34692 -18.05111,27.80494 -31.1935,36.99553c-13.08183,9.19059 -29.35235,14.95326 -48.31494,17.0518c-11.65857,1.19917 -38.6035,1.96227 -80.13528,2.25904l-0.03634,0l-91.92104,0c-15.47108,0 -28.07445,-12.60337 -28.07445,-28.07445l0,-287.6276c0,-15.47411 12.60337,-28.07748 28.07445,-28.07748l111.21673,0c26.52098,0 45.86513,1.11135 59.11957,3.35525c13.89944,2.37108 26.55732,7.3767 37.57997,14.89875c11.19526,7.69163 20.50092,17.82702 27.70804,30.13363c7.47057,12.74873 11.26794,27.12965 11.26794,42.75517c0,16.99426 -4.63012,32.8045 -13.7874,46.94317c-5.34175,8.26396 -11.88266,15.43777 -19.40471,21.27614c-0.24226,0.18472 -0.44212,0.35127 -0.65106,0.49965c0.16655,0.09387 0.33613,0.16655 0.50268,0.26043c12.73358,6.30169 23.31412,14.84121 31.41153,25.40661c11.88266,15.51347 17.90272,33.89465 17.90272,54.67417c0.0212,16.19482 -3.77617,32.09287 -11.26491,47.27022z"/>
   </g>
  </g>
 </g>
</svg>